# xmcd
#
# Track frame offsets:
#	150
#	11956
#	26114
#	39230
#	50658
#	64886
#	78831
#	92656
#	106308
#	116762
#	128996
#	141197
#	154078
#	167885
#	179501
#	192973
#	205758
#	217994
#	231316
#	244245
#	257479
#	271993
#	284752
#	298846
#	312830
#
# Disc length: 4370 seconds
#
# Revision: 0
# Processed by: cddbd v1.5.1PL2 Copyright (c) Steve Scherf et al.
# Submitted via: dBpowerAMP V4.0
#
DISCID=7c111019
DTITLE=Huambaly - Los 100 Exitos Inolvidables
DYEAR=2006
DGENRE=Latin
TTITLE0=Le Grisbi
TTITLE1=Lencali (Lencalie)
TTITLE2=Luna Rossa (Luna Roja)
TTITLE3=Ma' Catalina
TTITLE4=Mala Hierba
TTITLE5=Mambo a la Huambaly
TTITLE6=Mambo Borracho
TTITLE7=Mambo Romantico
TTITLE8=Mambo Suave
TTITLE9=Mammy
TTITLE10=Manhattan Spiritual
TTITLE11=Mantecadito
TTITLE12=Marcha del rio Kwai
TTITLE13=Me voy de aqui
TTITLE14=Mi Bumbane
TTITLE15=Mi realidad
TTITLE16=Muchacha Bonita
TTITLE17=No te vuelvas loco
TTITLE18=Nos diremos adios
TTITLE19=Por medio peso
TTITLE20=Por poco
TTITLE21=Punto de partida
TTITLE22=Que dira la gente
TTITLE23=Que mas da
TTITLE24=Quemame los ojos
EXTD=EMI Music Chile/Radio Corazón FM 636711-2\nLos 100 éxitos inolvidables de la Huambaly
EXTT0=
EXTT1=
EXTT2=
EXTT3=
EXTT4=
EXTT5=
EXTT6=
EXTT7=
EXTT8=
EXTT9=
EXTT10=
EXTT11=
EXTT12=
EXTT13=
EXTT14=
EXTT15=
EXTT16=
EXTT17=
EXTT18=
EXTT19=
EXTT20=
EXTT21=
EXTT22=
EXTT23=
EXTT24=
PLAYORDER=
